<svg width="1500" height="500" xmlns="http://www.w3.org/2000/svg" fill="none">
 <defs>
  <clipPath id="clip0">
   <rect id="svg_1" rx="20" height="500" width="1500"/>
  </clipPath>
  <linearGradient y2="1.05221" x2="0.5" y1="0.411" x1="0.50033" id="paint0_linear">
   <stop stop-color="white"/>
   <stop stop-opacity="0" stop-color="white" offset="1"/>
  </linearGradient>
 </defs>
 <style type="text/css">@keyframes move-100 {
  from {transform: translateY(0)}
  to {transform: translateY(-100px)}
}
@keyframes move-75 {
  from {transform: translateY(0)}
  to {transform: translateY(-75px)}
}
@keyframes line-50 {
  from {transform: translateY(0)}
  to {transform: translateY(-50px)}
}
.line-100 {
  animation: move-100 4s infinite linear;
}
.line-75 {
  animation: move-75 4s infinite linear;
}
.line-50 {
  animation: move-50 4s infinite linear;
}</style>
 <g>
  <title>Layer 1</title>
  <g id="svg_2" clip-path="url(#clip0)">
   <rect id="svg_3" height="500" width="1500"/>
   <path id="svg_4" stroke-linecap="round" stroke-width="4" stroke="#E9E9E9" d="m1,498l750,-465l750,465"/>
   <path id="svg_5" stroke-linecap="round" stroke-width="4" stroke="#E9E9E9" d="m-397,498l1148,-465l1148,465"/>
   <path id="svg_6" stroke-linecap="round" stroke-width="4" stroke="#E9E9E9" d="m-1136,498l1887,-465l1887,465"/>
   <path id="svg_7" stroke-linecap="round" stroke-width="4" stroke="#E9E9E9" d="m251,498l499.5,-465l499.5,465"/>
   <path id="svg_8" stroke-linecap="round" stroke-width="4" stroke="#E9E9E9" d="m464,498l286.474,-465l286.476,465"/>
   <path id="svg_9" stroke-linecap="round" stroke-width="4" stroke="#E9E9E9" d="m654,498l96,-465l96,465"/>
   <path id="svg_10" stroke-width="4" stroke="#E9E9E9" d="m-128,500c1395.6,0 1752.83,0 1757,0" class="line-100"/>
   <path id="svg_11" stroke-width="4" stroke="#E9E9E9" d="m-128,400c1395.6,0 1752.83,0 1757,0" class="line-100"/>
   <path id="svg_12" stroke-width="4" stroke="#E9E9E9" d="m-128,300c1395.6,0 1752.83,0 1757,0" class="line-75"/>
   <path id="svg_13" stroke-width="4" stroke="#E9E9E9" d="m-128,225c1395.6,0 1752.83,0 1757,0" class="line-75"/>
   <path id="svg_14" stroke-width="4" stroke="#E9E9E9" d="m-128,175c1395.6,0 1752.83,0 1757,0" class="line-50"/>
   <rect id="svg_15" fill="url(#paint0_linear)" height="500" width="1501"/>
  </g>
  <text transform="matrix(2.09562 0 0 2.09562 -686.953 -315.538)" stroke="null" font-style="normal" x="428.49071" y="380.79836" id="svg_16" letter-spacing="0em" font-weight="bold" font-size="66" font-family="monospace" xml:space="preserve" fill="#666666">JAR</text>
  <text transform="matrix(1.23984 0 0 1.22078 -246.663 -73.2987)" stroke="null" fill="#BBBBBB" x="576.41425" y="456.07447" id="svg_17" font-size="66" font-family="monospace" text-anchor="start" xml:space="preserve">.RAR</text>
  <text fill="#DDDDDD" x="312.22839" y="353.51838" id="svg_18" font-size="18" font-family="monospace" text-anchor="start" xml:space="preserve" stroke="null" transform="matrix(1.22072 0 0 1.11807 -115.751 -25.9264)" font-weight="normal" font-style="normal">@4o4forbidden</text>
  <path stroke="null" id="svg_20" d="m502.12168,472.99714l-4.44782,1.23025c-0.40754,-1.08295 -1.02114,-2.02167 -1.76371,-2.76882l2.35212,-4.1517c0.20682,-0.36633 0.07937,-0.83339 -0.29001,-1.04174c-0.36556,-0.20682 -0.83187,-0.07784 -1.03793,0.28772l-2.23154,3.93954c-0.46096,-0.2923 -0.94634,-0.52583 -1.45004,-0.68381c-0.31748,-1.09669 -1.26077,-1.84003 -2.33381,-1.95527c-0.00076,-0.00305 -0.00153,-0.00611 -0.00229,-0.00916c-0.04655,-0.18469 -0.07098,-0.35106 -0.07479,-0.49607c-0.00382,-0.14424 0.00916,-0.26788 0.03511,-0.36556c0.02824,-0.09921 0.06029,-0.17935 0.0954,-0.24193c0.11142,-0.19843 0.25948,-0.32817 0.44036,-0.38846c0.01755,0.21445 0.10837,0.36785 0.26864,0.45867c0.11829,0.06716 0.25643,0.08777 0.4167,0.06563c0.16103,-0.02366 0.28696,-0.116 0.37854,-0.27703c0.08013,-0.14195 0.09692,-0.29688 0.04884,-0.46325c-0.04884,-0.16714 -0.15493,-0.29611 -0.31596,-0.38693c-0.11753,-0.0664 -0.23964,-0.09998 -0.36785,-0.09845c-0.12745,0.00076 -0.24956,0.02595 -0.36709,0.07403c-0.11677,0.04808 -0.2259,0.12211 -0.3274,0.22056c-0.10074,0.09845 -0.18393,0.20682 -0.25185,0.32512c-0.10074,0.17858 -0.16485,0.37854 -0.1908,0.59757c-0.02518,0.21827 -0.02824,0.4312 -0.00687,0.64107c0.01297,0.12211 0.04655,0.22972 0.07174,0.34267c-0.28619,-0.01603 -0.57849,0.00153 -0.87003,0.08242c-0.36785,0.1015 -0.69678,0.27475 -0.97687,0.49836c-0.03969,-0.13127 -0.07479,-0.26253 -0.13737,-0.39533c-0.08853,-0.19003 -0.20072,-0.37091 -0.33427,-0.54644c-0.13585,-0.17477 -0.29306,-0.3129 -0.47165,-0.41441c-0.11753,-0.06563 -0.24498,-0.11524 -0.38235,-0.14806c-0.13737,-0.03282 -0.26864,-0.03969 -0.3938,-0.02061s-0.24269,0.06105 -0.35335,0.12516c-0.11142,0.06411 -0.19843,0.15645 -0.26559,0.27246c-0.09082,0.16103 -0.11448,0.32664 -0.07174,0.49378c0.04426,0.16866 0.13814,0.29306 0.28009,0.37396c0.16027,0.09082 0.31672,0.10532 0.4663,0.04274c0.14958,-0.06258 0.25719,-0.15187 0.32435,-0.27093c0.09082,-0.16027 0.09006,-0.33809 -0.00534,-0.53041c0.18622,-0.04197 0.3793,-0.00611 0.57773,0.10761c0.06182,0.03434 0.1305,0.08777 0.20606,0.15874c0.07403,0.07021 0.14729,0.16943 0.21827,0.29611c0.07174,0.12669 0.13661,0.28085 0.19156,0.46401c0.00992,0.03358 0.01755,0.07479 0.02671,0.11142c-0.69526,0.63191 -1.03564,1.59352 -0.83797,2.562c-0.44417,0.4457 -0.81813,0.96924 -1.11195,1.55307l-3.93801,-2.23307c-0.36633,-0.20682 -0.83339,-0.07784 -1.04098,0.28772c-0.20682,0.36785 -0.07784,0.83492 0.28848,1.04327l4.15247,2.35212c-0.25261,1.02266 -0.29535,2.14225 -0.08929,3.27939l-4.44782,1.23101c-0.40754,0.11219 -0.64565,0.53346 -0.5327,0.93948c0.11219,0.40449 0.53194,0.64336 0.93948,0.52965l4.48674,-1.2417c0.38388,0.80668 1.04022,1.74005 1.8095,2.62763l-2.4376,4.30358c-0.20759,0.36709 -0.07937,0.83339 0.28848,1.04022c0.1824,0.10456 0.39075,0.12364 0.57849,0.07174c0.18927,-0.0519 0.35793,-0.17477 0.46096,-0.35946l2.20941,-3.89909c2.06059,1.97969 4.33792,3.1466 4.40966,0.80363c1.21956,1.95374 2.63374,-0.25796 3.43584,-3.03441l3.97083,2.24909c0.18316,0.10532 0.39227,0.12364 0.58154,0.07174c0.18774,-0.05113 0.35641,-0.17477 0.4602,-0.35946c0.20759,-0.36556 0.07937,-0.83263 -0.28772,-1.03945l-4.35089,-2.46431c0.22209,-1.14859 0.32206,-2.27657 0.24345,-3.15804l4.49208,-1.2417c0.40449,-0.11219 0.64641,-0.53194 0.53117,-0.93795c-0.11295,-0.40601 -0.53423,-0.64412 -0.94024,-0.53194z" fill="#BBBBBB"/>
  <path transform="rotate(35.4289 460.197 371.313)" id="svg_22" d="m475.6339,358.38588c0.21198,-0.82097 0.23079,-2.16566 0.04286,-2.99128l-0.62187,-2.7259c-0.1879,-0.82562 -1.02351,-1.61951 -1.85798,-1.76399l-5.73122,-0.99003c-0.83387,-0.14448 -2.19975,-0.13976 -3.03243,0.01055l-6.20806,1.11806c-0.83446,0.15031 -2.19972,0.16557 -3.03711,0.03524l-6.07419,-0.94663c0.00763,0.02936 0.02114,0.05523 0.02762,0.08459l4.15749,19.75171l1.90262,0.3288c0.83443,0.1445 2.19853,0.13859 3.03299,-0.01053l6.2063,-1.11924c0.83269,-0.14914 2.19973,-0.1644 3.03712,-0.03408l6.66433,1.03942c0.83739,0.13032 1.39468,-0.44281 1.24197,-1.27663l-0.74633,-4.04007c-0.15386,-0.8327 -0.10633,-2.18447 0.1045,-3.00544l0.89141,-3.46456l0,0zm-29.82195,-9.03963c-0.83325,0.17614 -1.36587,0.99002 -1.19029,1.82153l8.87172,42.14476l3.14457,0l-9.00208,-42.77543c-0.17851,-0.83505 -0.99299,-1.36705 -1.82392,-1.19086l0,0z" stroke="null" fill="#666666"/>
 </g>
</svg>