<svg width="1500" height="500" xmlns="http://www.w3.org/2000/svg" fill="none">
 <defs>
  <clipPath id="clip0">
   <rect id="svg_1" rx="20" height="500" width="1500"/>
  </clipPath>
  <linearGradient y2="1.05221" x2="0.5" y1="0.411" x1="0.50033" id="paint0_linear">
   <stop stop-color="white"/>
   <stop stop-opacity="0" stop-color="white" offset="1"/>
  </linearGradient>
 </defs>
 <style type="text/css">@keyframes move-100 {
  from {transform: translateY(0)}
  to {transform: translateY(-100px)}
}
@keyframes move-75 {
  from {transform: translateY(0)}
  to {transform: translateY(-75px)}
}
@keyframes line-50 {
  from {transform: translateY(0)}
  to {transform: translateY(-50px)}
}
.line-100 {
  animation: move-100 4s infinite linear;
}
.line-75 {
  animation: move-75 4s infinite linear;
}
.line-50 {
  animation: move-50 4s infinite linear;
}</style>
 <g>
  <title>Layer 1</title>
  <g id="svg_2" clip-path="url(#clip0)">
   <rect id="svg_3" height="500" width="1500"/>
   <path id="svg_4" stroke-linecap="round" stroke-width="4" stroke="#E9E9E9" d="m1,498l750,-465l750,465"/>
   <path id="svg_5" stroke-linecap="round" stroke-width="4" stroke="#E9E9E9" d="m-397,498l1148,-465l1148,465"/>
   <path id="svg_6" stroke-linecap="round" stroke-width="4" stroke="#E9E9E9" d="m-1136,498l1887,-465l1887,465"/>
   <path id="svg_7" stroke-linecap="round" stroke-width="4" stroke="#E9E9E9" d="m251,498l499.5,-465l499.5,465"/>
   <path id="svg_8" stroke-linecap="round" stroke-width="4" stroke="#E9E9E9" d="m464,498l286.474,-465l286.476,465"/>
   <path id="svg_9" stroke-linecap="round" stroke-width="4" stroke="#E9E9E9" d="m654,498l96,-465l96,465"/>
   <path id="svg_10" stroke-width="4" stroke="#E9E9E9" d="m-128,500c1395.6,0 1752.83,0 1757,0" class="line-100"/>
   <path id="svg_11" stroke-width="4" stroke="#E9E9E9" d="m-128,400c1395.6,0 1752.83,0 1757,0" class="line-100"/>
   <path id="svg_12" stroke-width="4" stroke="#E9E9E9" d="m-128,300c1395.6,0 1752.83,0 1757,0" class="line-75"/>
   <path id="svg_13" stroke-width="4" stroke="#E9E9E9" d="m-128,225c1395.6,0 1752.83,0 1757,0" class="line-75"/>
   <path id="svg_14" stroke-width="4" stroke="#E9E9E9" d="m-128,175c1395.6,0 1752.83,0 1757,0" class="line-50"/>
   <rect id="svg_15" fill="url(#paint0_linear)" height="500" width="1501"/>
  </g>
  <text transform="matrix(2.09562 0 0 2.09562 -686.953 -315.538)" stroke="null" font-style="normal" x="548.74152" y="302.5399" id="svg_16" letter-spacing="0em" font-weight="bold" font-size="66" font-family="monospace" xml:space="preserve" fill="#999999">JAR.RAR</text>
 </g>
</svg>
