<svg width="1500" height="500" xmlns="http://www.w3.org/2000/svg" fill="none">
 <defs>
  <clipPath id="clip0">
   <rect id="svg_1" rx="20" height="500" width="1500"/>
  </clipPath>
  <linearGradient y2="1.05221" x2="0.5" y1="0.411" x1="0.50033" id="paint0_linear">
   <stop stop-color="white"/>
   <stop stop-opacity="0" stop-color="white" offset="1"/>
  </linearGradient>
 </defs>
 <style type="text/css">@keyframes move-100 {
  from {transform: translateY(0)}
  to {transform: translateY(-100px)}
}
@keyframes move-75 {
  from {transform: translateY(0)}
  to {transform: translateY(-75px)}
}
@keyframes line-50 {
  from {transform: translateY(0)}
  to {transform: translateY(-50px)}
}
.line-100 {
  animation: move-100 4s infinite linear;
}
.line-75 {
  animation: move-75 4s infinite linear;
}
.line-50 {
  animation: move-50 4s infinite linear;
}</style>
 <g>
  <title>Layer 1</title>
  <g id="svg_2" clip-path="url(#clip0)">
   <rect id="svg_3" height="500" width="1500"/>
   <path id="svg_4" stroke-linecap="round" stroke-width="4" stroke="#E9E9E9" d="m1,498l750,-465l750,465"/>
   <path id="svg_5" stroke-linecap="round" stroke-width="4" stroke="#E9E9E9" d="m-397,498l1148,-465l1148,465"/>
   <path id="svg_6" stroke-linecap="round" stroke-width="4" stroke="#E9E9E9" d="m-1136,498l1887,-465l1887,465"/>
   <path id="svg_7" stroke-linecap="round" stroke-width="4" stroke="#E9E9E9" d="m251,498l499.5,-465l499.5,465"/>
   <path id="svg_8" stroke-linecap="round" stroke-width="4" stroke="#E9E9E9" d="m464,498l286.474,-465l286.476,465"/>
   <path id="svg_9" stroke-linecap="round" stroke-width="4" stroke="#E9E9E9" d="m654,498l96,-465l96,465"/>
   <path id="svg_10" stroke-width="4" stroke="#E9E9E9" d="m-128,500c1395.6,0 1752.83,0 1757,0" class="line-100"/>
   <path id="svg_11" stroke-width="4" stroke="#E9E9E9" d="m-128,400c1395.6,0 1752.83,0 1757,0" class="line-100"/>
   <path id="svg_12" stroke-width="4" stroke="#E9E9E9" d="m-128,300c1395.6,0 1752.83,0 1757,0" class="line-75"/>
   <path id="svg_13" stroke-width="4" stroke="#E9E9E9" d="m-128,225c1395.6,0 1752.83,0 1757,0" class="line-75"/>
   <path id="svg_14" stroke-width="4" stroke="#E9E9E9" d="m-128,175c1395.6,0 1752.83,0 1757,0" class="line-50"/>
   <rect id="svg_15" fill="url(#paint0_linear)" height="500" width="1501"/>
  </g>
  <text transform="matrix(2.56903 0 0 2.56903 -842.966 -502.1)" stroke="null" font-style="normal" x="341.31212" y="375.07207" id="svg_16" letter-spacing="0em" font-weight="bold" font-size="66" font-family="monospace" xml:space="preserve" fill="#666666">JAR</text>
  <text transform="matrix(1.4527 0 0 1.43036 -343.602 -169.544)" stroke="null" fill="#BBBBBB" x="480.92053" y="440.84953" id="svg_17" font-size="66" font-family="monospace" text-anchor="start" xml:space="preserve">.RAR</text>
  <text fill="#DDDDDD" x="178.8826" y="311.59589" id="svg_18" font-size="18" font-family="monospace" text-anchor="start" xml:space="preserve" stroke="null" transform="matrix(1.4705 0 0 1.29777 -159.44 -84.2683)" font-weight="normal" font-style="normal">@4o4forbidden</text>
  <path stroke="null" id="svg_20" d="m396.18951,448.51056l-5.6676,1.56763c-0.5193,-1.37995 -1.30117,-2.57609 -2.24739,-3.52815l2.99717,-5.29028c0.26354,-0.46679 0.10114,-1.06195 -0.36954,-1.32743c-0.46582,-0.26354 -1.06,-0.09919 -1.32257,0.36662l-2.84352,5.01993c-0.58738,-0.37246 -1.20587,-0.67004 -1.84771,-0.87134c-0.40455,-1.39745 -1.60653,-2.34464 -2.97384,-2.49149c-0.00097,-0.00389 -0.00194,-0.00778 -0.00292,-0.01167c-0.05932,-0.23534 -0.09044,-0.44734 -0.0953,-0.63211c-0.00486,-0.1838 0.01167,-0.34134 0.04473,-0.46582c0.03598,-0.12642 0.07683,-0.22853 0.12156,-0.30828c0.14198,-0.25284 0.33064,-0.41817 0.56112,-0.49499c0.02237,0.27327 0.13809,0.46873 0.34231,0.58446c0.15073,0.08558 0.32675,0.11183 0.53097,0.08363c0.20519,-0.03015 0.36565,-0.14782 0.48235,-0.35301c0.10211,-0.18088 0.1235,-0.37829 0.06224,-0.59029c-0.06224,-0.21297 -0.19741,-0.37732 -0.40261,-0.49305c-0.14976,-0.08461 -0.30536,-0.12739 -0.46873,-0.12545c-0.1624,0.00097 -0.318,0.03306 -0.46776,0.09433c-0.14879,0.06127 -0.28785,0.1556 -0.41719,0.28105c-0.12837,0.12545 -0.23437,0.26354 -0.32092,0.41428c-0.12837,0.22756 -0.21006,0.48235 -0.24312,0.76145c-0.03209,0.27813 -0.03598,0.54945 -0.00875,0.81688c0.01653,0.1556 0.05932,0.29272 0.09141,0.43664c-0.36468,-0.02042 -0.73714,0.00194 -1.10862,0.10503c-0.46873,0.12934 -0.88787,0.35009 -1.24477,0.63503c-0.05057,-0.16727 -0.0953,-0.33453 -0.17505,-0.50374c-0.11281,-0.24215 -0.25576,-0.47262 -0.42594,-0.69629c-0.1731,-0.2227 -0.37343,-0.39872 -0.60099,-0.52806c-0.14976,-0.08363 -0.31217,-0.14684 -0.48721,-0.18866c-0.17505,-0.04182 -0.34231,-0.05057 -0.5018,-0.02626s-0.30925,0.0778 -0.45026,0.15949c-0.14198,0.08169 -0.25284,0.19936 -0.33842,0.34717c-0.11572,0.20519 -0.14587,0.41622 -0.09141,0.62919c0.0564,0.21492 0.17602,0.37343 0.3569,0.47651c0.20422,0.11572 0.40358,0.1342 0.59418,0.05446c0.19061,-0.07974 0.32772,-0.19352 0.4133,-0.34523c0.11572,-0.20422 0.11475,-0.43081 -0.00681,-0.67587c0.23728,-0.05349 0.48332,-0.00778 0.73617,0.13712c0.07877,0.04376 0.16629,0.11183 0.26257,0.20228c0.09433,0.08947 0.18769,0.21589 0.27813,0.37732c0.09141,0.16143 0.17407,0.35787 0.24409,0.59127c0.01264,0.04279 0.02237,0.0953 0.03404,0.14198c-0.88593,0.80521 -1.31965,2.03053 -1.06778,3.26461c-0.56598,0.56793 -1.0425,1.23505 -1.4169,1.97899l-5.01798,-2.84547c-0.46679,-0.26354 -1.06195,-0.09919 -1.32646,0.36662c-0.26354,0.46873 -0.09919,1.06389 0.3676,1.32938l5.29125,2.99717c-0.32189,1.30312 -0.37635,2.72974 -0.11378,4.17873l-5.6676,1.56861c-0.5193,0.14295 -0.82272,0.67976 -0.67879,1.19712c0.14295,0.51541 0.67782,0.8198 1.19712,0.6749l5.71719,-1.58222c0.48916,1.02791 1.32549,2.21725 2.30574,3.34824l-3.10609,5.4838c-0.26451,0.46776 -0.10114,1.06195 0.3676,1.32549c0.23242,0.13323 0.49791,0.15754 0.73714,0.09141c0.24117,-0.06613 0.45609,-0.2227 0.58738,-0.45804l2.81532,-4.96839c2.62569,2.52261 5.52756,4.00952 5.61897,1.02402c1.55402,2.48954 3.35602,-0.3287 4.37809,-3.86657l5.0598,2.86589c0.23339,0.1342 0.49985,0.15754 0.74103,0.09141c0.23923,-0.06516 0.45415,-0.2227 0.5864,-0.45804c0.26451,-0.46582 0.10114,-1.06097 -0.36662,-1.32451l-5.54409,-3.14013c0.28299,-1.46358 0.41039,-2.9009 0.31022,-4.02411l5.724,-1.58222c0.51541,-0.14295 0.82369,-0.67782 0.67684,-1.19517c-0.14393,-0.51736 -0.68073,-0.82077 -1.19809,-0.67782z" fill="#BBBBBB"/>
  <path transform="rotate(35.4289 346.613 331.499)" stroke="null" id="svg_22" d="m375.63538,307.19556c0.39854,-1.54349 0.4339,-4.07163 0.08058,-5.62386l-1.16917,-5.12492c-0.35326,-1.55223 -1.92429,-3.04481 -3.49316,-3.31645l-10.77517,-1.86133c-1.56774,-0.27163 -4.13571,-0.26277 -5.70123,0.01983l-11.67168,2.10205c-1.56885,0.28259 -4.13566,0.31129 -5.71003,0.06625l-11.41999,-1.77974c0.01435,0.0552 0.03974,0.10384 0.05192,0.15904l7.81644,37.13486l3.57708,0.61817c1.56879,0.27167 4.13343,0.26056 5.70227,-0.01979l11.66836,-2.10426c1.56552,-0.28039 4.13568,-0.30908 5.71004,-0.06406l12.52949,1.95419c1.57436,0.24501 2.62211,-0.83252 2.335,-2.40017l-1.40315,-7.59566c-0.28927,-1.56555 -0.1999,-4.10699 0.19646,-5.65048l1.67593,-6.51367l0,0zm-56.06776,-16.99525c-1.56658,0.33115 -2.56794,1.86131 -2.23784,3.42462l16.67956,79.23566l5.91205,0l-16.92466,-80.42137c-0.33562,-1.56996 -1.86691,-2.57017 -3.42911,-2.23891l0,0z" fill="#666666"/>
 </g>
</svg>